<svg width="25" height="25" viewBox="0 0 25 25" fill="none" xmlns="http://www.w3.org/2000/svg">
<path d="M0.194824 3.28787C0.194824 2.47978 0.465102 1.81311 1.00563 1.28788C1.54617 0.762617 2.24889 0.5 3.11374 0.5C3.96317 0.5 4.65041 0.758569 5.17552 1.27576C5.71605 1.80909 5.98633 2.50402 5.98633 3.3606C5.98633 4.13635 5.72379 4.7828 5.19868 5.29999C4.65815 5.83332 3.94772 6.09998 3.06741 6.09998H3.04424C2.19482 6.09998 1.50757 5.83332 0.982469 5.29999C0.457365 4.76666 0.194824 4.09594 0.194824 3.28787ZM0.495982 24.4999V8.30604H5.63884V24.4999H0.495982ZM8.48826 24.4999H13.6311V15.4575C13.6311 14.8919 13.6929 14.4555 13.8164 14.1484C14.0327 13.5989 14.3608 13.1343 14.801 12.7545C15.2412 12.3747 15.7933 12.1848 16.4574 12.1848C18.1871 12.1848 19.052 13.405 19.052 15.8454V24.4999H24.1948V15.2151C24.1948 12.8232 23.6543 11.0091 22.5732 9.7727C21.4921 8.53634 20.0636 7.91816 18.2875 7.91816C16.2952 7.91816 14.7431 8.81513 13.6311 10.6091V10.6575H13.6079L13.6311 10.6091V8.30604H8.48826C8.51914 8.8232 8.53459 10.4313 8.53459 13.1303C8.53459 15.8292 8.51914 19.6191 8.48826 24.4999Z" fill="#46464E"/>
</svg>
