<svg width="21" height="17" viewBox="0 0 21 17" fill="none" xmlns="http://www.w3.org/2000/svg">
<path d="M20.1948 2.30998C19.4432 2.63607 18.6483 2.85164 17.8348 2.94998C18.693 2.4373 19.3361 1.63076 19.6448 0.679975C18.8384 1.16004 17.9556 1.49827 17.0348 1.67998C16.4194 1.01255 15.5998 0.568272 14.7046 0.416827C13.8095 0.265382 12.8894 0.415334 12.0886 0.843165C11.2879 1.271 10.6518 1.95251 10.2801 2.78081C9.90837 3.60912 9.82212 4.53736 10.0348 5.41997C8.40425 5.3375 6.80927 4.91293 5.35348 4.17384C3.89769 3.43475 2.61367 2.39767 1.58482 1.12998C1.22396 1.76014 1.03434 2.4738 1.03482 3.19998C1.03354 3.87436 1.19904 4.53859 1.51658 5.13354C1.83412 5.72849 2.29384 6.23569 2.85482 6.60998C2.2028 6.59223 1.56471 6.41727 0.994824 6.09998V6.14998C0.999711 7.09487 1.33082 8.00907 1.93214 8.73794C2.53346 9.46681 3.36808 9.96562 4.29482 10.15C3.93808 10.2585 3.5677 10.3158 3.19482 10.32C2.93671 10.317 2.67925 10.2936 2.42482 10.25C2.68873 11.0628 3.19945 11.7731 3.8859 12.2821C4.57235 12.7911 5.4004 13.0735 6.25482 13.09C4.81203 14.2252 3.03071 14.8448 1.19482 14.85C0.860559 14.8511 0.52656 14.831 0.194824 14.79C2.06925 16.0002 4.25364 16.6427 6.48482 16.64C8.02452 16.656 9.55196 16.365 10.9779 15.7841C12.4039 15.2031 13.6998 14.3439 14.79 13.2565C15.8802 12.1691 16.7428 10.8754 17.3274 9.45088C17.912 8.0264 18.2069 6.4997 18.1948 4.95997C18.1948 4.78997 18.1948 4.60998 18.1948 4.42998C18.9795 3.84479 19.6563 3.1274 20.1948 2.30998V2.30998Z" fill="#46464E"/>
</svg>
